<svg width="41" height="35" viewBox="0 0 41 35" fill="none" xmlns="http://www.w3.org/2000/svg">
<path d="M11.0663 5.07807e-07C8.87765 -0.00012413 6.73809 0.637053 4.91823 1.83095C3.09837 3.02485 1.67995 4.72184 0.842366 6.70731C0.00477743 8.69278 -0.214361 10.8776 0.212664 12.9853C0.639689 15.0931 1.6937 17.0292 3.24139 18.5487L19.5932 34.6045C19.7205 34.7299 19.8718 34.8294 20.0383 34.8972C20.2049 34.9651 20.3834 35 20.5637 35C20.744 35 20.9226 34.9651 21.0891 34.8972C21.2557 34.8294 21.407 34.7299 21.5343 34.6045L37.8861 18.546C39.9052 16.4974 41.0234 13.7517 40.9996 10.9009C40.9758 8.05016 39.812 5.32278 37.7589 3.30692C35.7059 1.29106 32.9283 0.148233 30.025 0.124881C27.1217 0.101529 24.3253 1.19952 22.2389 3.18209L20.5637 4.82428L18.8913 3.18209C17.8633 2.17284 16.643 1.37235 15.2998 0.826359C13.9567 0.280365 12.52 -0.000435859 11.0663 5.07807e-07Z" fill="#D02B2B"/>
</svg>
