<svg width="231" height="231" viewBox="0 0 231 231" fill="none" xmlns="http://www.w3.org/2000/svg">
<rect width="231" height="231" rx="30" fill="#EBDBCC"/>
<circle cx="115.5" cy="115.5" r="87" fill="#6A492A" stroke="#6A492A"/>
<rect x="160.785" y="97.079" width="42.2149" height="40.6798" fill="white"/>
<circle cx="115.5" cy="115.5" r="64.4737" fill="white"/>
<g clip-path="url(#clip0_435_521)">
<path d="M98.3359 84.4912C94.292 84.491 90.3388 85.69 86.9763 87.9365C83.6139 90.1831 80.9931 93.3763 79.4456 97.1124C77.898 100.848 77.4931 104.96 78.2821 108.926C79.0711 112.892 81.0185 116.535 83.8781 119.394L114.09 149.607C114.326 149.843 114.605 150.03 114.913 150.158C115.221 150.285 115.551 150.351 115.884 150.351C116.217 150.351 116.547 150.285 116.855 150.158C117.162 150.03 117.442 149.843 117.677 149.607L147.889 119.389C151.62 115.535 153.686 110.368 153.642 105.004C153.598 99.6393 151.448 94.5071 147.655 90.7139C143.861 86.9206 138.729 84.7701 133.365 84.7262C128.001 84.6823 122.834 86.7484 118.979 90.479L115.884 93.5691L112.794 90.479C110.894 88.5799 108.64 87.0736 106.158 86.0462C103.676 85.0188 101.022 84.4904 98.3359 84.4912Z" fill="#D02B2B"/>
</g>
<defs>
<clipPath id="clip0_435_521">
<rect width="75.9868" height="75.9868" fill="white" transform="translate(77.8904 79.4254)"/>
</clipPath>
</defs>
</svg>
