<svg width="64" height="64" viewBox="0 0 64 64" fill="none" xmlns="http://www.w3.org/2000/svg">
<circle cx="32" cy="32" r="31.5" fill="#6A492A" stroke="#6A492A"/>
<rect x="48.5614" y="25.2632" width="15.4386" height="14.8772" fill="white"/>
<circle cx="32" cy="32" r="23.5789" fill="white"/>
<g clip-path="url(#clip0_0_30)">
<path d="M25.7228 20.6597C24.2439 20.6596 22.7982 21.0981 21.5685 21.9197C20.3388 22.7413 19.3803 23.9091 18.8144 25.2754C18.2484 26.6418 18.1003 28.1452 18.3889 29.5957C18.6774 31.0462 19.3896 32.3786 20.4354 33.4243L31.4845 44.4734C31.5706 44.5597 31.6728 44.6281 31.7853 44.6748C31.8979 44.7215 32.0185 44.7455 32.1404 44.7455C32.2622 44.7455 32.3828 44.7215 32.4954 44.6748C32.6079 44.6281 32.7101 44.5597 32.7962 44.4734L43.8453 33.4224C45.2096 32.0127 45.9652 30.1231 45.9491 28.1613C45.9331 26.1995 45.1466 24.3226 43.7594 22.9354C42.3721 21.5481 40.4952 20.7617 38.5334 20.7456C36.5716 20.7295 34.6821 21.4851 33.2723 22.8495L32.1404 23.9796L31.0102 22.8495C30.3157 22.1549 29.491 21.6041 28.5835 21.2283C27.6759 20.8526 26.7051 20.6594 25.7228 20.6597Z" fill="#D02B2B"/>
</g>
<defs>
<clipPath id="clip0_0_30">
<rect width="27.7895" height="27.7895" fill="white" transform="translate(18.2456 18.807)"/>
</clipPath>
</defs>
</svg>
