<svg width="72" height="72" viewBox="0 0 72 72" fill="none" xmlns="http://www.w3.org/2000/svg">
<path d="M36 63C41.3401 63 46.5603 61.4165 51.0004 58.4497C55.4405 55.4829 58.9012 51.2661 60.9447 46.3325C62.9883 41.3989 63.523 35.9701 62.4812 30.7326C61.4394 25.4951 58.8679 20.6841 55.0919 16.9081C51.3159 13.1321 46.5049 10.5606 41.2674 9.51881C36.03 8.47701 30.6012 9.0117 25.6675 11.0553C20.7339 13.0988 16.5171 16.5595 13.5503 20.9996C10.5835 25.4397 9 30.6599 9 36C9 40.464 10.08 44.673 12 48.381L9 63L23.619 60C27.327 61.92 31.539 63 36 63Z" fill="#6A492A" stroke="#6A492A" stroke-width="2.5" stroke-linecap="round" stroke-linejoin="round"/>
</svg>
