<svg width="31" height="31" viewBox="0 0 31 31" fill="none" xmlns="http://www.w3.org/2000/svg">
<path d="M15.5 29.7295C18.3143 29.7295 21.0655 28.895 23.4055 27.3314C25.7455 25.7678 27.5693 23.5455 28.6463 20.9454C29.7233 18.3453 30.0051 15.4842 29.4561 12.724C28.907 9.96371 27.5518 7.42826 25.5618 5.43822C23.5717 3.44819 21.0363 2.09296 18.276 1.54391C15.5158 0.994866 12.6547 1.27666 10.0546 2.35365C7.4545 3.43065 5.23215 5.25448 3.6686 7.59451C2.10504 9.93454 1.27049 12.6857 1.27049 15.5C1.27049 17.8526 1.83967 20.0708 2.85155 22.025L1.27049 29.7295L8.97498 28.1485C10.9292 29.1603 13.149 29.7295 15.5 29.7295Z" stroke="black" stroke-width="2.5" stroke-linecap="round" stroke-linejoin="round"/>
</svg>
