<svg width="45" height="110" viewBox="0 0 45 110" fill="none" xmlns="http://www.w3.org/2000/svg">
<path d="M11.6061 5.36824e-07C9.3107 -0.000131224 7.06678 0.673456 5.15814 1.93558C3.24951 3.1977 1.7619 4.99166 0.883457 7.09059C0.00501074 9.18951 -0.224817 11.4991 0.223038 13.7273C0.670893 15.9555 1.77632 18.0023 3.39951 19.6087L20.5489 36.5819C20.6825 36.7145 20.8411 36.8196 21.0158 36.8913C21.1905 36.9631 21.3777 37 21.5668 37C21.756 37 21.9432 36.9631 22.1179 36.8913C22.2925 36.8196 22.4512 36.7145 22.5848 36.5819L39.7342 19.6058C41.8518 17.4401 43.0246 14.5375 42.9996 11.5238C42.9747 8.51017 41.754 5.62694 39.6008 3.49589C37.4477 1.36484 34.5345 0.156704 31.4896 0.132017C28.4447 0.107331 25.5119 1.26807 23.3238 3.36392L21.5668 5.09996L19.8128 3.36392C18.7347 2.297 17.4548 1.45077 16.0462 0.87358C14.6376 0.296386 13.1307 -0.000460765 11.6061 5.36824e-07Z" fill="#6A492A"/>
<path d="M23 95C26.9556 95 30.8224 93.827 34.1114 91.6294C37.4004 89.4318 39.9638 86.3082 41.4776 82.6537C42.9913 78.9992 43.3874 74.9778 42.6157 71.0982C41.844 67.2186 39.9392 63.6549 37.1421 60.8579C34.3451 58.0608 30.7814 56.156 26.9018 55.3843C23.0222 54.6126 19.0008 55.0087 15.3463 56.5224C11.6918 58.0362 8.56824 60.5996 6.37061 63.8886C4.17298 67.1776 3 71.0444 3 75C3 78.3067 3.8 81.4244 5.22222 84.1711L3 95L13.8289 92.7778C16.5756 94.2 19.6956 95 23 95Z" stroke="#6A492A" stroke-width="2.5" stroke-linecap="round" stroke-linejoin="round"/>
</svg>
