<svg width="45" height="110" viewBox="0 0 45 110" fill="none" xmlns="http://www.w3.org/2000/svg">
<path d="M23 95C26.9556 95 30.8224 93.827 34.1114 91.6294C37.4004 89.4318 39.9638 86.3082 41.4776 82.6537C42.9913 78.9992 43.3874 74.9778 42.6157 71.0982C41.844 67.2186 39.9392 63.6549 37.1421 60.8579C34.3451 58.0608 30.7814 56.156 26.9018 55.3843C23.0222 54.6126 19.0008 55.0087 15.3463 56.5224C11.6918 58.0362 8.56824 60.5996 6.37061 63.8886C4.17298 67.1776 3 71.0444 3 75C3 78.3067 3.8 81.4244 5.22222 84.1711L3 95L13.8289 92.7778C16.5756 94.2 19.6956 95 23 95Z" stroke="#6A492A" stroke-width="2.5" stroke-linecap="round" stroke-linejoin="round"/>
</svg>
