<svg width="72" height="72" viewBox="0 0 72 72" fill="none" xmlns="http://www.w3.org/2000/svg">
<path fill-rule="evenodd" clip-rule="evenodd" d="M38.0815 23.0343C38.8045 21.5781 39.8599 20.3124 41.1625 19.3394C42.465 18.3663 43.9781 17.7133 45.5796 17.433C47.1811 17.1527 48.8261 17.2529 50.3817 17.7257C51.9373 18.1985 53.3599 19.0305 54.5346 20.1545C55.7093 21.2786 56.6031 22.6631 57.144 24.1964C57.6848 25.7296 57.8575 27.3686 57.648 28.9809C57.4385 30.5932 56.8527 32.1336 55.938 33.4777C55.0233 34.8219 53.8053 35.932 52.3824 36.7185M47.382 12.8837V7M36.9647 17.2006L32.7978 13.0337M57.7994 38.052L61.9663 42.2022M62.1163 27.618H68M57.7994 17.2006L61.9663 13.0337M29.5476 21.3009C36.9814 20.9009 44.7152 25.1845 47.282 34.9851C50.1449 35.2191 52.8157 36.519 54.7662 38.6276C56.7167 40.7363 57.8047 43.5001 57.8152 46.3725C57.8257 49.2449 56.7578 52.0167 54.8228 54.1395C52.8877 56.2623 50.2265 57.5817 47.3654 57.8365H15.3134C-0.0376123 55.7531 -2.13774 33.4017 15.3134 30.4015C16.679 27.7691 18.7132 25.5424 21.2117 23.945C23.7103 22.3476 26.5851 21.4357 29.5476 21.3009Z" stroke="#6A492A" stroke-width="3" stroke-linecap="round" stroke-linejoin="round"/>
</svg>


