<svg width="65" height="57" viewBox="0 0 65 57" fill="none" xmlns="http://www.w3.org/2000/svg">
<path d="M17.5442 8.19897e-07C14.0743 -0.000200419 10.6823 1.02858 7.79718 2.95623C4.91204 4.88388 2.66334 7.62382 1.33546 10.8295C0.00757442 14.0352 -0.33984 17.5627 0.33715 20.9659C1.01414 24.3691 2.68513 27.4951 5.13878 29.9485L31.0623 55.872C31.2642 56.0744 31.504 56.235 31.768 56.3446C32.0321 56.4541 32.3151 56.5105 32.601 56.5105C32.8869 56.5105 33.1699 56.4541 33.434 56.3446C33.698 56.235 33.9378 56.0744 34.1397 55.872L60.0632 29.9442C63.2642 26.6365 65.0371 22.2033 64.9993 17.6005C64.9616 12.9977 63.1165 8.59409 59.8617 5.33931C56.6069 2.08453 52.2033 0.239335 47.6005 0.201631C42.9977 0.163928 38.5645 1.93673 35.2568 5.13776L32.601 7.78922L29.9495 5.13776C28.3199 3.50824 26.3851 2.21578 24.2558 1.33423C22.1265 0.452673 19.8487 -0.000703732 17.5442 8.19897e-07Z" fill="#6A492A"/>
</svg>
