<svg width="364" height="78" viewBox="0 0 364 78" fill="none" xmlns="http://www.w3.org/2000/svg">
<path fill-rule="evenodd" clip-rule="evenodd" d="M326.874 10.8457C321.679 10.8448 316.575 12.2063 312.071 14.7945C307.567 17.3827 303.82 21.107 301.205 25.5956C298.59 30.0843 297.198 35.1803 297.169 40.375C297.139 45.5697 298.472 50.6814 301.035 55.1999C302.767 52.9485 304.994 51.1257 307.543 49.8723C310.092 48.6189 312.896 47.9686 315.736 47.9715H338.012C340.853 47.9686 343.656 48.6189 346.205 49.8723C348.755 51.1257 350.981 52.9485 352.714 55.1999C355.277 50.6814 356.61 45.5697 356.58 40.375C356.55 35.1803 355.158 30.0843 352.543 25.5956C349.928 21.107 346.181 17.3827 341.677 14.7945C337.173 12.2063 332.069 10.8448 326.874 10.8457ZM356.363 63.104C361.327 56.6329 364.012 48.7021 364 40.5464C364 20.0418 347.379 3.42054 326.874 3.42054C306.37 3.42054 289.748 20.0418 289.748 40.5464C289.736 48.7021 292.421 56.633 297.385 63.104L297.367 63.1708L298.684 64.7041C302.166 68.775 306.49 72.0425 311.356 74.2813C316.223 76.5201 321.517 77.677 326.874 77.6722C334.401 77.6861 341.752 75.3998 347.943 71.1195C350.582 69.2959 352.976 67.1397 355.064 64.7041L356.382 63.1708L356.363 63.104ZM326.874 18.2709C323.92 18.2709 321.087 19.4443 318.999 21.533C316.91 23.6218 315.736 26.4547 315.736 29.4086C315.736 32.3625 316.91 35.1955 318.999 37.2842C321.087 39.3729 323.92 40.5464 326.874 40.5464C329.828 40.5464 332.661 39.3729 334.75 37.2842C336.838 35.1955 338.012 32.3625 338.012 29.4086C338.012 26.4547 336.838 23.6218 334.75 21.533C332.661 19.4443 329.828 18.2709 326.874 18.2709Z" fill="#6A492A"/>
<path d="M252.82 32.9888L220.524 0.73459C220.291 0.501727 220.015 0.316983 219.711 0.190932C219.407 0.064882 219.081 0 218.752 0C218.423 0 218.097 0.064882 217.793 0.190932C217.489 0.316983 217.212 0.501727 216.98 0.73459L184.684 32.9888C183.743 33.9292 183.21 35.2065 183.21 36.5387C183.21 39.3049 185.46 41.5539 188.228 41.5539H191.631V64.5692C191.631 65.9562 192.752 67.0768 194.14 67.0768H213.734V49.5234H222.515V67.0768H243.364C244.752 67.0768 245.873 65.9562 245.873 64.5692V41.5539H249.276C250.609 41.5539 251.887 41.0289 252.828 40.0807C254.78 38.1216 254.78 34.9479 252.82 32.9888Z" fill="#6A492A"/>
<path d="M107.613 12.3475C104.149 12.3473 100.764 13.3741 97.8843 15.298C95.0047 17.222 92.7604 19.9567 91.435 23.1562C90.1097 26.3557 89.763 29.8764 90.4387 33.2731C91.1143 36.6697 92.7821 39.7897 95.231 42.2384L121.105 68.112C121.306 68.314 121.546 68.4743 121.809 68.5836C122.073 68.693 122.355 68.7493 122.64 68.7493C122.926 68.7493 123.208 68.693 123.472 68.5836C123.735 68.4743 123.975 68.314 124.176 68.112L150.05 42.234C153.245 38.9328 155.014 34.5081 154.976 29.9141C154.939 25.3202 153.097 20.9251 149.849 17.6765C146.6 14.428 142.205 12.5864 137.611 12.5488C133.017 12.5111 128.592 14.2805 125.291 17.4754L122.64 20.1217L119.994 17.4754C118.368 15.849 116.437 14.559 114.311 13.6792C112.186 12.7993 109.913 12.3468 107.613 12.3475Z" fill="#6A492A"/>
<!-- <path d="M36.0413 66.0756C41.3875 66.0756 46.6136 64.4903 51.0588 61.5201C55.504 58.5499 58.9687 54.3283 61.0146 49.389C63.0605 44.4497 63.5958 39.0147 62.5528 33.7712C61.5098 28.5277 58.9354 23.7113 55.155 19.9309C51.3747 16.1506 46.5582 13.5761 41.3147 12.5332C36.0712 11.4902 30.6362 12.0255 25.697 14.0714C20.7577 16.1173 16.536 19.5819 13.5658 24.0271C10.5957 28.4723 9.01031 33.6985 9.01031 39.0447C9.01031 43.5138 10.0916 47.7276 12.0138 51.4399L9.01031 66.0756L23.6461 63.0722C27.3583 64.9944 31.5751 66.0756 36.0413 66.0756Z" fill="#6A492A" stroke="#6A492A" stroke-width="2.5" stroke-linecap="round" stroke-linejoin="round"/> -->
<path d="M38.0814 27.0343C38.8045 25.5781 39.8599 24.3124 41.1625 23.3394C42.465 22.3663 43.9781 21.7133 45.5796 21.433C47.1811 21.1527 48.8261 21.2529 50.3817 21.7257C51.9373 22.1985 53.3599 23.0305 54.5346 24.1545C55.7093 25.2786 56.6031 26.6631 57.144 28.1964C57.6848 29.7296 57.8575 31.3686 57.648 32.9809C57.4385 34.5932 56.8527 36.1336 55.938 37.4777C55.0233 38.8219 53.8053 39.932 52.3824 40.7185M47.382 16.8837V11M36.9647 21.2006L32.7978 17.0337M57.7994 42.052L61.9663 46.2022M62.1163 31.618H68M57.7994 21.2006L61.9663 17.0337M29.5476 25.3009C36.9814 24.9009 44.7152 29.1845 47.282 38.9851C50.1449 39.2191 52.8157 40.519 54.7662 42.6276C56.7166 44.7363 57.8047 47.5001 57.8152 50.3725C57.8257 53.2449 56.7578 56.0167 54.8227 58.1395C52.8877 60.2623 50.2265 61.5817 47.3654 61.8365H15.3134C-0.0376117 59.7531 -2.13774 37.4017 15.3134 34.4015C16.679 31.7691 18.7132 29.5424 21.2117 27.945C23.7103 26.3476 26.5851 25.4357 29.5476 25.3009Z" stroke="#6A492A" stroke-width="3" stroke-linecap="round" stroke-linejoin="round"/>
</svg>
