<svg width="75" height="75" viewBox="0 0 75 75" fill="none" xmlns="http://www.w3.org/2000/svg">
<path fill-rule="evenodd" clip-rule="evenodd" d="M37.5 7.49999C32.2529 7.49903 27.0972 8.87432 22.5477 11.4886C17.9982 14.1029 14.2139 17.8647 11.5726 22.3986C8.93128 26.9324 7.52531 32.0798 7.49503 37.3268C7.46475 42.5739 8.81122 47.7371 11.4 52.3012C13.1498 50.0271 15.3991 48.1859 17.9741 46.9199C20.549 45.6539 23.3807 44.9969 26.25 45H48.75C51.6193 44.9969 54.451 45.6539 57.0259 46.9199C59.6009 48.1859 61.8502 50.0271 63.6 52.3012C66.1888 47.7371 67.5352 42.5739 67.505 37.3268C67.4747 32.0798 66.0687 26.9324 63.4274 22.3986C60.7861 17.8647 57.0018 14.1029 52.4523 11.4886C47.9028 8.87432 42.7472 7.49903 37.5 7.49999ZM67.2862 60.2849C72.3001 53.7486 75.0121 45.7378 75 37.5C75 16.7887 58.2112 0 37.5 0C16.7888 0 4.21996e-05 16.7887 4.21996e-05 37.5C-0.0123382 45.7379 2.69969 53.7487 7.71378 60.2849L7.69503 60.3524L9.02628 61.9012C12.5433 66.0131 16.9102 69.3135 21.8259 71.5748C26.7416 73.8362 32.0891 75.0047 37.5 74.9999C45.1025 75.0139 52.5277 72.7046 58.7812 68.3812C61.4472 66.5392 63.8646 64.3613 65.9737 61.9012L67.305 60.3524L67.2862 60.2849ZM37.5 15C34.5163 15 31.6548 16.1852 29.5451 18.295C27.4353 20.4048 26.25 23.2663 26.25 26.25C26.25 29.2337 27.4353 32.0951 29.5451 34.2049C31.6548 36.3147 34.5163 37.5 37.5 37.5C40.4837 37.5 43.3452 36.3147 45.4549 34.2049C47.5647 32.0951 48.75 29.2337 48.75 26.25C48.75 23.2663 47.5647 20.4048 45.4549 18.295C43.3452 16.1852 40.4837 15 37.5 15Z" fill="#6A492A"/>
</svg>
