<svg width="71" height="67" viewBox="0 0 71 67" fill="none" xmlns="http://www.w3.org/2000/svg">
<path d="M69.5306 32.9511L37.2715 0.733749C37.0392 0.501152 36.7633 0.31662 36.4596 0.190714C36.1559 0.0648077 35.8303 0 35.5015 0C35.1727 0 34.8471 0.0648077 34.5434 0.190714C34.2396 0.31662 33.9638 0.501152 33.7315 0.733749L1.47237 32.9511C0.532561 33.8904 0 35.1662 0 36.4969C0 39.2599 2.24772 41.5064 5.01234 41.5064H8.41133V64.4952C8.41133 65.8807 9.53128 67 10.9175 67H30.4891V49.4668H39.2607V67H60.0854C61.4717 67 62.5916 65.8807 62.5916 64.4952V41.5064H65.9906C67.322 41.5064 68.5986 40.9819 69.5384 40.0348C71.4885 38.078 71.4885 34.9079 69.5306 32.9511Z" fill="#6A492A"/>
</svg>
